online info
___________
imdb: http://www.imdb.com/title/tt1631707/
trailer: http://www.imdb.com/video/screenplay/vi1602134297/
rated: R
runtime: 90 min
genre: Horror | Mystery | Thriller
release date: 2011
plot: Three strangers arrive one by one at a mysterious cabin in the middle of nowhere only to learn they've been brought together for a reason.


General
_______
Complete name : Enter.Nowhere.2011.DVDRip.x264-miRaGe.mp4
Format : MPEG-4
Format profile : Base Media / Version 2
Codec ID : mp42
File size : 701 MiB
Duration : 1h 29mn
Overall bit rate mode : Variable
Overall bit rate : 1 096 Kbps


Video
_____
ID : 1
Format : AVC
Format/Info : Advanced Video Codec
Format profile : Main@L3.0
Format settings, CABAC : Yes
Format settings, ReFrames : 2 frames
Codec ID : avc1
Codec ID/Info : Advanced Video Coding
Duration : 1h 29mn
Bit rate mode : Variable
Bit rate : 931 Kbps
Width : 720 pixels
Height : 360 pixels
Display aspect ratio : 2.35:1
Frame rate mode : Variable
Frame rate : 23.976 fps
Minimum frame rate : 14.985 fps
Maximum frame rate : 29.970 fps
Color space : YUV
Chroma subsampling : 4:2:0
Bit depth : 8 bits
Scan type : Progressive
Bits/(Pixel*Frame) : 0.150
Stream size : 596 MiB (85%)
Writing library : x264 core 79


Audio
_____
ID : 2
Format : AAC
Format/Info : Advanced Audio Codec
Format profile : LC
Codec ID : 40
Duration : 1h 29mn
Bit rate mode : Variable
Bit rate : 160 Kbps
Maximum bit rate : 224 Kbps
Channel(s) : 2 channels
Channel positions : Front: L R
Sampling rate : 48.0 KHz
Compression mode : Lossy
Stream size : 102 MiB (15%)
Language : English


notes
_____
Encoded by: Smallz

Looking for cammers or suppliers who can bring unreleased movies/games/etc

servers, accounts, etc


greetz
______
thanks to 26k, HDscene, Vision, Noir, BTVRG, and everyone else we respect

special shout out to everyone at the underground
 
http://i1231.photobucket.com/albums/ee513/demonlord4000/Uploading/EnterNowhere2011DVDRipx264-miRaGemp4_thumbs_20120403_124944.jpg